<svg xmlns="http://www.w3.org/2000/svg" xmlns:xlink="http://www.w3.org/1999/xlink" width="1920" zoomAndPan="magnify" viewBox="0 0 1440 1439.999935" height="1920" preserveAspectRatio="xMidYMid meet" version="1.0"><path fill="#b0ec70" d="M 656.3125 103.160156 C 627.375 137.105469 590.367188 180.511719 574.230469 199.710938 C 557.8125 218.910156 528.039062 254.246094 508.007812 277.894531 C 487.972656 301.546875 471.554688 321.859375 471.554688 322.972656 C 471.554688 324.085938 496.320312 325.476562 526.648438 325.753906 L 581.464844 326.589844 L 581.464844 503.832031 L 507.726562 549.464844 C 467.105469 574.503906 432.878906 596.765625 431.210938 598.714844 C 429.542969 601.21875 428.707031 639.058594 428.984375 701.105469 C 429.542969 798.769531 428.984375 809.34375 424.253906 809.34375 C 422.863281 809.34375 410.0625 801.832031 395.59375 792.648438 C 381.40625 783.46875 367.492188 775.957031 364.988281 775.957031 C 362.484375 775.957031 340.78125 787.917969 316.574219 802.945312 C 292.367188 817.691406 255.082031 840.230469 233.65625 853.308594 C 212.230469 866.105469 191.363281 879.183594 187.191406 882.246094 L 179.398438 887.53125 L 179.398438 993.820312 C 179.398438 1052.253906 180.511719 1101.503906 181.625 1103.171875 C 182.738281 1104.839844 197.484375 1114.300781 214.179688 1124.316406 C 231.152344 1134.335938 261.757812 1152.699219 282.351562 1165.5 C 354.136719 1209.460938 359.980469 1212.800781 364.433594 1212.800781 C 366.9375 1212.800781 383.632812 1203.894531 401.4375 1192.765625 C 439.835938 1169.394531 459.3125 1157.429688 471.277344 1151.03125 C 476.007812 1148.527344 479.902344 1144.910156 479.902344 1143.238281 C 479.902344 1140.457031 446.515625 1117.917969 433.992188 1112.074219 C 428.984375 1109.847656 423.140625 1112.355469 397.820312 1127.65625 C 381.125 1137.675781 366.378906 1146.019531 364.988281 1146.019531 C 363.597656 1146.019531 349.683594 1138.230469 334.101562 1128.769531 C 318.800781 1119.308594 290.976562 1102.613281 272.332031 1091.484375 L 238.664062 1071.171875 L 236.996094 1027.210938 C 233.933594 958.761719 234.492188 925.09375 238.664062 920.085938 C 241.449219 916.46875 321.027344 866.664062 353.582031 848.300781 L 364.988281 841.621094 L 395.875 860.261719 C 412.847656 870.558594 427.316406 878.90625 428.429688 878.90625 C 429.261719 878.90625 440.671875 872.507812 453.46875 864.714844 C 467.660156 856.089844 477.121094 848.300781 478.234375 844.683594 C 479.070312 841.34375 479.902344 791.535156 479.902344 733.941406 L 479.902344 629.320312 L 515.519531 607.617188 C 534.996094 595.652344 565.324219 577.289062 582.855469 566.4375 C 600.382812 555.585938 619.582031 543.898438 625.425781 540.28125 L 635.722656 533.882812 L 635.164062 403.664062 L 634.328125 273.722656 L 611.511719 272.886719 C 598.714844 272.332031 588.417969 270.941406 588.417969 269.550781 C 588.417969 263.425781 677.179688 160.476562 680.519531 162.425781 C 681.910156 163.539062 683.023438 246.453125 683.023438 371.386719 L 683.023438 578.402344 L 658.816406 593.984375 C 645.179688 602.332031 610.679688 624.035156 581.464844 641.839844 L 528.597656 674.675781 L 527.761719 744.792969 C 527.484375 791.257812 528.039062 814.910156 529.988281 814.910156 C 531.65625 814.910156 543.34375 807.953125 556.421875 799.605469 L 580.070312 784.300781 L 580.070312 748.6875 C 580.070312 724.480469 581.183594 711.679688 583.6875 708.621094 C 587.304688 703.613281 706.671875 631.269531 711.125 631.269531 C 712.515625 631.269531 741.453125 647.960938 775.398438 668.550781 C 821.867188 696.378906 837.726562 707.230469 839.117188 712.238281 C 840.230469 715.855469 841.066406 733.660156 841.34375 751.746094 L 841.621094 784.300781 L 864.996094 799.605469 C 877.792969 807.953125 889.757812 814.910156 891.429688 814.910156 C 893.652344 814.910156 894.488281 794.042969 894.488281 745.347656 L 894.488281 675.507812 L 877.792969 665.214844 C 868.332031 659.648438 833.273438 637.945312 799.886719 617.355469 L 738.671875 579.792969 L 738.671875 370.550781 C 738.671875 255.359375 739.785156 161.035156 741.175781 161.035156 C 745.90625 161.035156 833.832031 266.488281 831.882812 269.828125 C 830.769531 271.21875 820.199219 272.332031 807.953125 272.332031 L 785.972656 272.332031 L 786.53125 403.664062 L 787.363281 535.273438 L 845.796875 570.886719 C 878.074219 590.367188 912.574219 612.070312 923.148438 618.746094 L 941.789062 631.269531 L 941.789062 848.019531 L 961.824219 861.097656 C 994.101562 881.964844 991.316406 881.6875 1016.082031 865.828125 C 1051.140625 843.289062 1054.757812 841.898438 1063.660156 846.351562 C 1087.3125 858.59375 1175.238281 913.6875 1180.523438 919.808594 L 1187.203125 927.042969 L 1186.089844 997.4375 C 1185.253906 1078.128906 1189.152344 1067.554688 1151.867188 1089.539062 C 1139.621094 1096.773438 1114.023438 1112.355469 1095.105469 1124.316406 C 1075.90625 1136.28125 1058.652344 1146.019531 1056.425781 1146.019531 C 1054.203125 1146.019531 1038.898438 1137.675781 1022.203125 1127.65625 L 991.875 1109.292969 L 965.441406 1125.152344 C 950.972656 1133.777344 939.007812 1141.847656 939.007812 1142.960938 C 939.007812 1146.019531 1051.140625 1212.800781 1056.425781 1212.800781 C 1058.652344 1212.800781 1073.679688 1205.007812 1089.539062 1195.269531 C 1105.398438 1185.53125 1145.464844 1161.324219 1178.300781 1141.292969 L 1238.121094 1104.839844 L 1238.957031 995.210938 L 1239.511719 885.582031 L 1227.828125 878.070312 C 1160.214844 835.777344 1059.488281 775.957031 1055.871094 775.957031 C 1053.367188 775.957031 1039.175781 783.46875 1024.429688 792.929688 C 1009.402344 802.109375 996.046875 808.789062 994.65625 807.953125 C 992.988281 806.839844 991.875 768.441406 991.875 702.5 L 991.875 598.714844 L 981.578125 591.757812 C 975.738281 587.863281 942.902344 567.550781 908.402344 546.402344 C 873.898438 525.535156 843.570312 506.335938 841.066406 503.832031 C 836.613281 499.9375 836.058594 492.144531 836.058594 416.742188 C 836.058594 371.386719 836.890625 332.152344 837.726562 329.648438 C 839.117188 325.753906 846.910156 325.199219 894.765625 325.199219 C 925.097656 325.199219 950.136719 324.640625 950.136719 323.808594 C 950.136719 322.972656 915.914062 282.070312 874.457031 233.097656 C 785.695312 128.480469 752.582031 89.246094 729.488281 61.421875 C 720.308594 50.570312 711.960938 41.386719 710.847656 41.386719 C 709.734375 41.386719 684.96875 69.210938 656.3125 103.160156 Z M 656.3125 103.160156 " fill-opacity="1" fill-rule="nonzero"/><path fill="#b0ec70" d="M 328.539062 310.171875 C 327.703125 312.675781 326.867188 393.925781 326.867188 490.753906 C 326.867188 660.207031 327.148438 667.441406 332.15625 669.945312 C 338.554688 673.5625 378.902344 672.167969 382.519531 668.550781 C 384.1875 666.882812 385.578125 635.164062 385.855469 592.3125 L 386.691406 518.578125 L 436.21875 517.742188 L 485.746094 517.1875 L 502.996094 506.335938 C 512.457031 500.492188 526.09375 492.421875 533.605469 488.25 C 545.847656 481.292969 546.683594 479.902344 546.683594 469.886719 L 546.683594 458.753906 L 385.300781 458.753906 L 385.300781 386.691406 C 385.300781 346.902344 384.464844 312.675781 383.632812 310.171875 C 382.238281 306.554688 376.953125 305.722656 356.085938 305.722656 C 335.214844 305.722656 329.929688 306.554688 328.539062 310.171875 Z M 328.539062 310.171875 " fill-opacity="1" fill-rule="nonzero"/><path fill="#b0ec70" d="M 1038.339844 307.390625 C 1037.230469 308.503906 1036.394531 342.449219 1036.394531 382.792969 C 1036.394531 446.511719 1035.835938 456.25 1031.941406 457.921875 C 1029.714844 458.753906 992.988281 459.589844 950.695312 459.867188 L 873.621094 460.148438 L 873.621094 469.886719 C 873.621094 479.066406 874.734375 480.179688 904.226562 498.265625 L 934.835938 516.910156 L 983.804688 516.910156 C 1026.097656 517.1875 1033.332031 517.742188 1034.722656 521.640625 C 1035.558594 524.144531 1036.394531 558.367188 1036.394531 598.15625 L 1036.394531 670.222656 L 1092.042969 670.222656 L 1091.488281 488.527344 L 1090.652344 307.113281 L 1065.609375 306.277344 C 1051.699219 306 1039.453125 306.277344 1038.339844 307.390625 Z M 1038.339844 307.390625 " fill-opacity="1" fill-rule="nonzero"/><path fill="#b0ec70" d="M 236.4375 361.925781 C 235.605469 363.875 235.328125 422.582031 235.605469 492.144531 L 236.4375 618.746094 L 292.089844 618.746094 L 292.089844 359.980469 L 264.820312 359.144531 C 244.785156 358.585938 237.273438 359.421875 236.4375 361.925781 Z M 236.4375 361.925781 " fill-opacity="1" fill-rule="nonzero"/><path fill="#b0ec70" d="M 1127.378906 360.257812 C 1126.265625 361.371094 1125.433594 419.523438 1125.433594 489.640625 C 1125.433594 602.886719 1125.988281 617.078125 1129.882812 618.46875 C 1136.285156 620.972656 1176.351562 620.417969 1180.523438 617.910156 C 1183.308594 615.964844 1183.863281 588.140625 1183.308594 487.691406 L 1182.472656 359.980469 L 1156.039062 359.144531 C 1141.292969 358.867188 1128.492188 359.144531 1127.378906 360.257812 Z M 1127.378906 360.257812 " fill-opacity="1" fill-rule="nonzero"/><path fill="#b0ec70" d="M 178.5625 460.703125 C 177.453125 461.539062 176.617188 474.894531 176.617188 489.917969 L 176.617188 517.1875 L 201.660156 517.1875 L 201.660156 458.753906 L 191.085938 458.753906 C 185.242188 458.753906 179.398438 459.589844 178.5625 460.703125 Z M 178.5625 460.703125 " fill-opacity="1" fill-rule="nonzero"/><path fill="#b0ec70" d="M 1218.367188 462.371094 C 1217.53125 464.597656 1217.253906 477.398438 1217.808594 491.03125 L 1218.644531 515.796875 L 1243.6875 515.796875 L 1244.519531 493.535156 C 1245.632812 461.539062 1244.519531 458.753906 1230.886719 458.753906 C 1224.210938 458.753906 1219.199219 460.148438 1218.367188 462.371094 Z M 1218.367188 462.371094 " fill-opacity="1" fill-rule="nonzero"/><path fill="#b0ec70" d="M 691.089844 712.792969 C 654.917969 735.054688 645.460938 740.894531 644.066406 742.007812 C 643.234375 742.566406 642.121094 756.757812 641.285156 773.730469 L 639.894531 804.613281 L 570.332031 847.464844 C 532.214844 871.113281 482.6875 901.722656 460.984375 915.632812 C 439 929.269531 418.96875 940.675781 416.464844 940.953125 C 413.679688 940.953125 404.777344 936.78125 396.152344 931.214844 C 362.484375 909.511719 367.214844 909.792969 332.433594 930.382812 C 315.738281 940.675781 299.878906 950.691406 297.652344 953.199219 C 294.035156 956.535156 293.480469 964.328125 294.035156 996.605469 L 294.871094 1035.835938 L 328.261719 1056.148438 C 346.625 1067.277344 363.039062 1076.460938 364.433594 1076.460938 C 366.101562 1076.460938 377.789062 1070.058594 390.585938 1062.269531 C 403.664062 1054.480469 416.1875 1048.636719 418.410156 1049.46875 C 422.308594 1050.304688 586.75 1151.308594 623.476562 1175.238281 L 637.667969 1184.417969 L 639.617188 1212.523438 C 642.121094 1244.796875 640.730469 1243.128906 679.128906 1265.109375 C 704.167969 1279.578125 710.847656 1281.25 722.253906 1275.40625 C 746.460938 1263.441406 774.84375 1244.519531 777.347656 1238.398438 C 779.015625 1235.058594 780.410156 1222.261719 780.410156 1210.574219 C 780.410156 1198.886719 781.519531 1187.757812 782.632812 1185.808594 C 783.746094 1184.140625 805.171875 1169.949219 830.492188 1154.367188 C 968.222656 1068.949219 998.550781 1050.582031 1003.28125 1049.46875 C 1006.621094 1048.636719 1015.527344 1052.53125 1026.097656 1059.207031 C 1057.261719 1079.519531 1053.367188 1079.519531 1091.488281 1056.703125 L 1125.152344 1036.671875 L 1127.101562 1018.585938 C 1129.328125 996.046875 1126.265625 956.535156 1121.816406 952.085938 C 1118.199219 948.46875 1076.183594 922.589844 1063.382812 915.914062 C 1055.59375 912.015625 1054.757812 912.296875 1032.21875 925.929688 C 1019.699219 933.71875 1007.179688 940.121094 1004.394531 940.121094 C 1001.613281 940.121094 979.910156 927.878906 955.980469 913.128906 C 932.050781 898.382812 893.652344 874.730469 870.839844 860.820312 C 847.742188 846.628906 817.972656 828.265625 804.617188 819.640625 L 780.410156 803.78125 L 780.410156 775.121094 C 780.410156 750.914062 779.574219 745.625 775.679688 742.007812 C 766.21875 734.21875 714.464844 703.613281 710.289062 703.613281 C 708.066406 703.613281 699.4375 707.785156 691.089844 712.792969 Z M 673.839844 845.515625 C 681.910156 850.246094 689.699219 856.367188 691.371094 859.707031 C 693.597656 863.601562 693.875 903.113281 692.484375 998.273438 L 690.535156 1131.273438 L 673.5625 1141.847656 C 657.703125 1151.863281 656.3125 1152.144531 649.632812 1148.246094 C 642.121094 1143.796875 526.09375 1072.007812 470.164062 1037.226562 L 436.777344 1016.359375 L 436.777344 972.394531 L 543.898438 905.0625 C 602.886719 868.054688 652.972656 837.449219 655.199219 837.449219 C 657.425781 837.449219 665.769531 841.066406 673.839844 845.515625 Z M 871.949219 902.558594 C 929.546875 938.730469 978.796875 969.890625 981.578125 971.839844 C 985.753906 975.179688 986.308594 979.074219 985.753906 995.769531 L 984.917969 1015.800781 L 919.53125 1056.425781 C 883.636719 1078.6875 839.117188 1106.230469 820.753906 1117.640625 C 802.390625 1129.046875 782.078125 1141.570312 775.679688 1145.1875 C 762.601562 1152.699219 761.765625 1152.421875 739.507812 1137.117188 L 727.542969 1129.046875 L 727.542969 858.039062 L 743.679688 847.742188 C 752.304688 841.898438 761.210938 837.167969 763.433594 837.167969 C 765.660156 837.167969 814.632812 866.664062 871.949219 902.558594 Z M 871.949219 902.558594 " fill-opacity="1" fill-rule="nonzero"/><path fill="#b0ec70" d="M 629.878906 908.957031 C 626.261719 912.015625 596.210938 930.660156 563.378906 950.691406 C 483.519531 999.386719 489.921875 993.542969 506.058594 1003.003906 C 513.570312 1007.457031 537.222656 1022.203125 558.925781 1035.835938 C 592.316406 1056.703125 634.609375 1082.859375 642.121094 1086.753906 C 643.234375 1087.3125 644.066406 1046.410156 644.066406 996.046875 C 644.066406 896.714844 644.347656 897.828125 629.878906 908.957031 Z M 629.878906 908.957031 " fill-opacity="1" fill-rule="nonzero"/><path fill="#b0ec70" d="M 776.792969 951.804688 C 773.730469 1032.777344 774.285156 1088.425781 778.460938 1086.753906 C 783.746094 1084.808594 911.738281 1005.230469 919.53125 999.109375 L 926.207031 993.820312 L 901.445312 977.960938 C 867.222656 956.257812 785.136719 906.453125 781.519531 904.78125 C 779.574219 903.949219 777.902344 918.695312 776.792969 951.804688 Z M 776.792969 951.804688 " fill-opacity="1" fill-rule="nonzero"/><path fill="#b0ec70" d="M 524.421875 1238.398438 C 524.421875 1275.683594 525.535156 1307.402344 526.648438 1309.074219 C 527.761719 1310.742188 564.210938 1333.558594 607.894531 1359.714844 C 651.582031 1385.867188 691.089844 1409.796875 695.542969 1413.136719 C 700.273438 1416.199219 706.671875 1418.703125 710.011719 1418.703125 C 713.074219 1418.703125 732.550781 1408.40625 753.140625 1395.886719 C 773.453125 1383.644531 812.683594 1359.714844 840.230469 1343.019531 C 867.777344 1326.324219 891.984375 1310.742188 893.933594 1308.238281 C 898.105469 1302.394531 898.941406 1175.238281 894.488281 1172.453125 C 890.316406 1169.949219 842.179688 1201.113281 839.953125 1207.792969 C 839.117188 1210.574219 838.5625 1218.363281 838.839844 1224.765625 C 839.394531 1231.164062 839.394531 1245.078125 839.117188 1255.929688 L 838.839844 1275.40625 L 775.121094 1314.082031 L 711.125 1352.480469 L 693.597656 1342.460938 C 683.855469 1337.175781 654.917969 1319.644531 628.765625 1303.785156 L 581.464844 1275.128906 L 580.070312 1239.234375 L 578.679688 1203.0625 L 555.03125 1187.203125 C 541.953125 1178.574219 529.710938 1171.339844 528.039062 1171.339844 C 525.257812 1171.0625 524.421875 1186.367188 524.421875 1238.398438 Z M 524.421875 1238.398438 " fill-opacity="1" fill-rule="nonzero"/></svg>